<svg xmlns="http://www.w3.org/2000/svg" viewBox="0 0 21.175 21.589">
  <defs>
    <style>
      .cls-1 {
        fill: #666;
      }
    </style>
  </defs>
  <g id="添加文章" transform="translate(-1.75 -0.911)">
    <path id="路径_89" data-name="路径 89" class="cls-1" d="M20.46,22.5H3a1.25,1.25,0,0,1-1.25-1.25V3.4A1.25,1.25,0,0,1,3,2.15H13.44a1.29,1.29,0,0,1,1.29,1A1.25,1.25,0,0,1,13.5,4.64H4.26V20h15V10.4a1.29,1.29,0,0,1,1-1.28,1.24,1.24,0,0,1,1.47,1.22v10.9a1.24,1.24,0,0,1-1.27,1.26Z"/>
    <path id="路径_90" data-name="路径 90" class="cls-1" d="M20,6.3l-7.25,7.26-1.62,1.61L7.4,16.75a.25.25,0,0,1-.29-.3l1.57-3.77,1.62-1.62,7.25-7.25L18.8,5.06Z"/>
    <path id="路径_91" data-name="路径 91" class="cls-1" d="M19,1.5h1.4a1.76,1.76,0,0,1,1.76,1.76h0A1.76,1.76,0,0,1,20.4,5H19Z" transform="translate(3.72 15.52) rotate(-45)"/>
  </g>
</svg>
