<svg xmlns="http://www.w3.org/2000/svg" viewBox="0 0 93.02 43.11"><defs><style>.cls-1{fill:#c1d2eb;}.cls-2{fill:#8a7e62;}</style></defs><title>资源 1</title><g id="图层_2" data-name="图层 2"><g id="图层_1-2" data-name="图层 1"><path class="cls-1" d="M92.92,19.58A21.51,21.51,0,0,0,65.61.83a36.29,36.29,0,0,0-3.92,1.45c-1.2.52-2.4,1.11-3.56,1.74A44.07,44.07,0,0,0,51.57,8.4c-1,.84-2,1.7-3,2.63l-2.08,2.11L44.41,11c-.93-.93-1.93-1.79-2.95-2.63A46.44,46.44,0,0,0,34.88,4c-1.16-.63-2.34-1.22-3.54-1.74A37.81,37.81,0,0,0,27.39.83,21.52,21.52,0,0,0,.08,19.58a22,22,0,0,0,1.18,9.28A22.57,22.57,0,0,0,3.35,33.1,20.81,20.81,0,0,0,4.71,35l.77.91.41.43.18.2s.12.12.12.09l-.09-.11-.19-.23-.36-.45-.68-.95a22.84,22.84,0,0,1-1.2-2A20.84,20.84,0,0,1,2,28.61a20.62,20.62,0,0,1-.41-8.89A19.26,19.26,0,0,1,11,6.25,17.72,17.72,0,0,1,26.17,5.11a37.38,37.38,0,0,1,11.54,7.94,53.35,53.35,0,0,1,4.11,4.76L38.1,21.53l-1.63,1.66A31.24,31.24,0,0,1,32,26.87a32.9,32.9,0,0,1-5,2.83,26.31,26.31,0,0,1-2.58,1,9.13,9.13,0,0,1-2.05.43,9.44,9.44,0,0,1-4.15-.52,11.74,11.74,0,0,1-1.88-.93,8.39,8.39,0,0,1-.86-.61l-.41-.34-.27-.27-.07-.05.05.07.06.09.18.23.34.4a7.34,7.34,0,0,0,.78.8A9.46,9.46,0,0,0,18,31.33a10.83,10.83,0,0,0,7,1.16,26,26,0,0,0,2.91-.75,32.66,32.66,0,0,0,5.78-2.43,33.64,33.64,0,0,0,5.38-3.49l1.81-1.45,3.54-2.86.21-.16L49.8,17.2c.14-.11.3-.22.44-.34a47,47,0,0,1,5.08-3.81A35.87,35.87,0,0,1,67.66,8a13.14,13.14,0,0,1,11,3.16A11.76,11.76,0,0,1,82,23c-1.39,4.72-6.38,8.63-11.39,8.14a9.18,9.18,0,0,1-2.07-.43,24.26,24.26,0,0,1-2.56-1,32,32,0,0,1-5-2.83,32.57,32.57,0,0,1-4.45-3.68l-1.63-1.63-.37.36-4.83,4.85-.38.41L50.78,29a39.63,39.63,0,0,0,5.13,5.24A41.16,41.16,0,0,0,62,38.52a36.81,36.81,0,0,0,3.44,1.75,19,19,0,0,0,4.2,1.25,24.41,24.41,0,0,0,2.54.3,19,19,0,0,0,2.61,0,19.17,19.17,0,0,0,2.6-.38A20.8,20.8,0,0,0,80,40.68a22.25,22.25,0,0,0,2.47-1,21,21,0,0,0,2.34-1.37c.4-.27.78-.56,1.16-.86l.57-.45a12.52,12.52,0,0,0,1-1L88.3,35a19.23,19.23,0,0,0,1.38-1.93,20.77,20.77,0,0,0,2.06-4.24A21.11,21.11,0,0,0,92.92,19.58Z"/><path class="cls-2" d="M86.73,36.78A21.53,21.53,0,0,1,69.52,43a21.2,21.2,0,0,1-4.63-1,39.57,39.57,0,0,1-3.79-1.47,44.12,44.12,0,0,1-6.87-3.88,43.41,43.41,0,0,1-6.08-5.06L46.52,30l-1.64,1.63a44.59,44.59,0,0,1-6.08,5.06,45.06,45.06,0,0,1-6.87,3.88c-1.27.54-2.34,1-3.79,1.47a21.48,21.48,0,0,1-4.62,1,21.88,21.88,0,0,1-9.33-1.18A22.71,22.71,0,0,1,10,39.75a18.2,18.2,0,0,1-5.1-4.83,22.84,22.84,0,0,1-1.2-2A20.84,20.84,0,0,1,2,28.61a20.62,20.62,0,0,1-.41-8.89A19.26,19.26,0,0,1,11,6.25,17.72,17.72,0,0,1,26.17,5.11a37.38,37.38,0,0,1,11.54,7.94,53.35,53.35,0,0,1,4.11,4.76L38.1,21.53l-2-2c-.68-.65-1.41-1.29-2.16-1.9a32.93,32.93,0,0,0-4.78-3.2c-.84-.45-1.71-.88-2.59-1.27a26,26,0,0,0-2.47-.93,9.58,9.58,0,0,0-8,1.32A9.69,9.69,0,0,0,12,20.67a9.9,9.9,0,0,0,.52,4.18,11.74,11.74,0,0,0,.93,1.88,13.33,13.33,0,0,0,4.6,4.6,10.83,10.83,0,0,0,7,1.16,26,26,0,0,0,2.91-.75,32.66,32.66,0,0,0,5.78-2.43,33.64,33.64,0,0,0,5.38-3.49l1.81-1.45,3.54-2.86.21-.16L49.8,17.2c.14-.11.3-.22.44-.34a47,47,0,0,1,5.08-3.81A35.87,35.87,0,0,1,67.66,8a13.14,13.14,0,0,1,11,3.16,11.83,11.83,0,0,1,3.93,9.39,11.08,11.08,0,0,1-1.32,4.56,11.29,11.29,0,0,1-1.31,1.83c-.25.28-.5.52-.77.77l-.44.34-.2.19-.18.11,0-.07.09-.09.19-.18.34-.41a8.39,8.39,0,0,0,.61-.86,9.14,9.14,0,0,0,.93-1.88,9.92,9.92,0,0,0,.54-4.18,9.71,9.71,0,0,0-4.15-7.07,9.52,9.52,0,0,0-8-1.32,26,26,0,0,0-2.47.93c-.88.39-1.75.82-2.61,1.27A31.88,31.88,0,0,0,59,17.68c-.75.61-1.46,1.25-2.16,1.9l-2,2-.37.36-4.83,4.85-.38.41L50.78,29a39.63,39.63,0,0,0,5.13,5.24A41.16,41.16,0,0,0,62,38.52a36.81,36.81,0,0,0,3.44,1.75,19,19,0,0,0,4.2,1.25A20.68,20.68,0,0,0,86.73,36.78Z"/></g></g></svg>