<svg xmlns="http://www.w3.org/2000/svg" viewBox="0 0 23.004 20.58">
  <defs>
    <style>
      .cls-1 {
        fill: #666;
      }
    </style>
  </defs>
  <g id="添加图片" transform="translate(-0.5 -1.71)">
    <path id="路径_87" data-name="路径 87" class="cls-1" d="M22.29,22.29H1.71A1.21,1.21,0,0,1,.5,21.08V6.15A1.21,1.21,0,0,1,1.71,4.94H6.2L7.1,2.5a1.22,1.22,0,0,1,1.14-.79h7.52a1.22,1.22,0,0,1,1.14.79l.9,2.44h4.49A1.21,1.21,0,0,1,23.5,6.15v8.07a1.23,1.23,0,0,1,0,.2,1.36,1.36,0,0,1,0,.2v6.46a1.21,1.21,0,0,1-1.21,1.21ZM2.92,19.87H21.08V14.62a.68.68,0,0,1,0-.2.65.65,0,0,1,0-.2V7.36H17a1.22,1.22,0,0,1-1.14-.79l-.9-2.44H9.08l-.9,2.44A1.22,1.22,0,0,1,7,7.36H2.92Z"/>
    <path id="路径_88" data-name="路径 88" class="cls-1" d="M12,18.35a5.25,5.25,0,1,1,5.25-5.25A5.25,5.25,0,0,1,12,18.35Zm0-8.21a3,3,0,1,0,3,3A3,3,0,0,0,12,10.14Z"/>
  </g>
</svg>
