<svg xmlns="http://www.w3.org/2000/svg" viewBox="0 0 21.522 20.987">
  <defs>
    <style>
      .cls-1 {
        fill: #666;
      }
    </style>
  </defs>
  <path id="搜索" class="cls-1" d="M22.61,22.1a1.41,1.41,0,0,1-1,.4,1.27,1.27,0,0,1-.92-.38l-4-4L15.16,16A7.91,7.91,0,0,1,13,17.37a8.28,8.28,0,0,1-6.43,0A8,8,0,0,1,3.92,15.6a8.25,8.25,0,0,1-1.77-9A8.09,8.09,0,0,1,3.92,3.93,8.22,8.22,0,0,1,6.54,2.15a8.43,8.43,0,0,1,6.43,0,1.25,1.25,0,0,1,.66,1.63A1.23,1.23,0,0,1,12,4.44a5.76,5.76,0,0,0-4.5,0A5.59,5.59,0,0,0,5.67,5.68a5.774,5.774,0,1,0,8.17,8.16A5.59,5.59,0,0,0,15.08,12a5.73,5.73,0,0,0,0-4.5,1.249,1.249,0,1,1,2.29-1,8.4,8.4,0,0,1,0,6.43,8.07,8.07,0,0,1-.92,1.62l2.22,1.65,4,4a1.34,1.34,0,0,1-.06,1.9Z" transform="translate(-1.514 -1.513)"/>
</svg>
